<svg xmlns="http://www.w3.org/2000/svg" width="1012.5" height="548.191" viewBox="0 0 1012.5 548.191">
  <g id="xboxone_windows" transform="translate(10645.605 16968.191)">
    <path id="路径_5602" data-name="路径 5602" d="M2.28,0H3.6a.481.481,0,0,0,.48-.48v-6a.227.227,0,0,1,.24-.24H5.784a.469.469,0,0,1,.456.288L9.12-.384A.621.621,0,0,0,9.7,0H11.16a.429.429,0,0,0,.48-.432.818.818,0,0,0-.1-.384L8.76-6.48a.885.885,0,0,1-.12-.408c0-.216.192-.384.5-.576a4.746,4.746,0,0,0,2.5-4.3A4.893,4.893,0,0,0,6.6-16.8H2.28a.481.481,0,0,0-.48.48V-.48A.481.481,0,0,0,2.28,0ZM4.32-9a.227.227,0,0,1-.24-.24v-5.04a.227.227,0,0,1,.24-.24H6.6a2.6,2.6,0,0,1,2.688,2.76A2.6,2.6,0,0,1,6.6-9ZM16.872,0h1.32a.481.481,0,0,0,.48-.48v-13.8a.227.227,0,0,1,.24-.24H22.08a.481.481,0,0,0,.48-.48v-1.32a.481.481,0,0,0-.48-.48H12.96a.481.481,0,0,0-.48.48V-15a.481.481,0,0,0,.48.48h3.192a.227.227,0,0,1,.24.24V-.48A.481.481,0,0,0,16.872,0Z" transform="translate(-9690.762 -16951.391)" fill="#747474"/>
    <path id="路径_5604" data-name="路径 5604" d="M2.28,0H3.6a.481.481,0,0,0,.48-.48v-6a.227.227,0,0,1,.24-.24H5.784a.469.469,0,0,1,.456.288L9.12-.384A.621.621,0,0,0,9.7,0H11.16a.429.429,0,0,0,.48-.432.818.818,0,0,0-.1-.384L8.76-6.48a.885.885,0,0,1-.12-.408c0-.216.192-.384.5-.576a4.746,4.746,0,0,0,2.5-4.3A4.893,4.893,0,0,0,6.6-16.8H2.28a.481.481,0,0,0-.48.48V-.48A.481.481,0,0,0,2.28,0ZM4.32-9a.227.227,0,0,1-.24-.24v-5.04a.227.227,0,0,1,.24-.24H6.6a2.6,2.6,0,0,1,2.688,2.76A2.6,2.6,0,0,1,6.6-9ZM14.88,0h4.44a4.79,4.79,0,0,0,5.04-4.9,5.024,5.024,0,0,0-1.7-3.672.314.314,0,0,1,0-.528,4.524,4.524,0,0,0,1.368-3.24,4.374,4.374,0,0,0-4.7-4.464H14.88a.481.481,0,0,0-.48.48V-.48A.481.481,0,0,0,14.88,0Zm1.992-9.888a.227.227,0,0,1-.24-.24V-14.28a.227.227,0,0,1,.24-.24H19.32a2.066,2.066,0,0,1,2.352,2.184A2.256,2.256,0,0,1,19.32-9.888Zm0,7.608a.227.227,0,0,1-.24-.24V-7.488a.215.215,0,0,1,.24-.24H19.32A2.718,2.718,0,0,1,22.008-4.9,2.537,2.537,0,0,1,19.32-2.28Z" transform="translate(-9689.275 -16883.059)" fill="#747474"/>
    <path id="路径_5605" data-name="路径 5605" d="M4.944,0H6.288a.481.481,0,0,0,.48-.48V-6.744l3.984-9.192a1.143,1.143,0,0,0,.12-.456.425.425,0,0,0-.432-.408H8.856a.45.45,0,0,0-.456.36L5.808-10.056c-.048.144-.1.216-.192.216s-.144-.072-.192-.216L2.832-16.44a.45.45,0,0,0-.456-.36H.792a.425.425,0,0,0-.432.408,1.143,1.143,0,0,0,.12.456L4.464-6.744V-.48A.481.481,0,0,0,4.944,0Z" transform="translate(-9689.275 -16815.059)" fill="#747474"/>
    <path id="路径_5606" data-name="路径 5606" d="M.792,0H2.424c.216,0,.312-.072.456-.36L5.76-6.168c.1-.192.144-.24.192-.24s.1.048.192.24L9.048-.36c.144.288.24.36.456.36h1.632a.416.416,0,0,0,.432-.432.758.758,0,0,0-.12-.384l-4.032-7.8a.861.861,0,0,1-.1-.264A.553.553,0,0,1,7.392-9.1l3.672-6.888a.885.885,0,0,0,.12-.408.426.426,0,0,0-.432-.408H9.216c-.216,0-.312.072-.456.36L6.12-11.328c-.048.1-.12.192-.168.192s-.12-.1-.168-.192L3.144-16.44c-.144-.288-.24-.36-.456-.36H1.152a.426.426,0,0,0-.432.408.9.9,0,0,0,.12.408L4.512-9.1a.553.553,0,0,1,.072.216.692.692,0,0,1-.1.264L.48-.816a.83.83,0,0,0-.12.408A.426.426,0,0,0,.792,0Z" transform="translate(-9689.275 -16678.059)" fill="#747474"/>
    <path id="路径_5607" data-name="路径 5607" d="M.768,0H2.16a.483.483,0,0,0,.456-.36L3.672-4.032a.461.461,0,0,1,.456-.336H8.112a.442.442,0,0,1,.456.336L9.624-.36A.483.483,0,0,0,10.08,0h1.392a.38.38,0,0,0,.408-.336,1.331,1.331,0,0,0-.072-.408L7.416-16.44a.462.462,0,0,0-.456-.36H5.28a.462.462,0,0,0-.456.36L.432-.744A1.331,1.331,0,0,0,.36-.336.38.38,0,0,0,.768,0ZM4.632-6.6c-.144,0-.24-.072-.192-.264L6-13.56c.024-.1.048-.144.1-.144h.048c.048,0,.072.048.1.144l1.56,6.7c.048.192-.048.264-.192.264Z" transform="translate(-9689.275 -16609.059)" fill="#747474"/>
    <path id="路径_5608" data-name="路径 5608" d="M2.28,0H6.72a4.79,4.79,0,0,0,5.04-4.9,5.024,5.024,0,0,0-1.7-3.672.314.314,0,0,1,0-.528,4.524,4.524,0,0,0,1.368-3.24A4.374,4.374,0,0,0,6.72-16.8H2.28a.481.481,0,0,0-.48.48V-.48A.481.481,0,0,0,2.28,0ZM4.272-9.888a.227.227,0,0,1-.24-.24V-14.28a.227.227,0,0,1,.24-.24H6.72a2.066,2.066,0,0,1,2.352,2.184A2.256,2.256,0,0,1,6.72-9.888Zm0,7.608a.227.227,0,0,1-.24-.24V-7.488a.215.215,0,0,1,.24-.24H6.72A2.718,2.718,0,0,1,9.408-4.9,2.537,2.537,0,0,1,6.72-2.28Z" transform="translate(-9689.275 -16746.059)" fill="#747474"/>
    <path id="路径_5622" data-name="路径 5622" d="M2.28,0H9.7a.481.481,0,0,0,.48-.48V-1.8a.481.481,0,0,0-.48-.48H4.32a.227.227,0,0,1-.24-.24v-13.8a.481.481,0,0,0-.48-.48H2.28a.481.481,0,0,0-.48.48V-.48A.481.481,0,0,0,2.28,0ZM13.3,0h1.32a.481.481,0,0,0,.48-.48v-13.8a.227.227,0,0,1,.24-.24H18.5a.481.481,0,0,0,.48-.48v-1.32a.481.481,0,0,0-.48-.48H9.384a.481.481,0,0,0-.48.48V-15a.481.481,0,0,0,.48.48h3.192a.227.227,0,0,1,.24.24V-.48A.481.481,0,0,0,13.3,0Z" transform="translate(-10608 -16951.391)" fill="#747474"/>
    <path id="路径_5623" data-name="路径 5623" d="M2.28,0H9.7a.481.481,0,0,0,.48-.48V-1.8a.481.481,0,0,0-.48-.48H4.32a.227.227,0,0,1-.24-.24v-13.8a.481.481,0,0,0-.48-.48H2.28a.481.481,0,0,0-.48.48V-.48A.481.481,0,0,0,2.28,0ZM12.816,0h4.44A4.79,4.79,0,0,0,22.3-4.9a5.024,5.024,0,0,0-1.7-3.672.314.314,0,0,1,0-.528,4.524,4.524,0,0,0,1.368-3.24,4.374,4.374,0,0,0-4.7-4.464h-4.44a.481.481,0,0,0-.48.48V-.48A.481.481,0,0,0,12.816,0Zm1.992-9.888a.227.227,0,0,1-.24-.24V-14.28a.227.227,0,0,1,.24-.24h2.448a2.066,2.066,0,0,1,2.352,2.184,2.256,2.256,0,0,1-2.352,2.448Zm0,7.608a.227.227,0,0,1-.24-.24V-7.488a.215.215,0,0,1,.24-.24h2.448A2.718,2.718,0,0,1,19.944-4.9,2.537,2.537,0,0,1,17.256-2.28Z" transform="translate(-10611 -16884.059)" fill="#747474"/>
    <path id="路径_5624" data-name="路径 5624" d="M18.64-11.82v-1.46H10.3l1.38-.6a19.9,19.9,0,0,0-1.44-2.96l-1.42.56a19.3,19.3,0,0,1,1.36,3H1.44v1.46h5.4C6.62-7.26,6.1-2.14,1,.4A4.748,4.748,0,0,1,2.08,1.6c3.76-2,5.26-5.3,5.9-8.82H15.1c-.34,4.5-.72,6.42-1.32,6.94a1.366,1.366,0,0,1-.94.22c-.52,0-1.92-.02-3.34-.14a3.308,3.308,0,0,1,.52,1.44,29.255,29.255,0,0,0,3.34.08,2.3,2.3,0,0,0,1.72-.7c.78-.78,1.18-2.94,1.56-8.56.04-.22.06-.72.06-.72H8.2c.14-1.06.22-2.12.28-3.16ZM32.5-7.86v3.92h-5V-7.86Zm1.38,5.24V-9.2H26.12v8.04H27.5V-2.62ZM38.04-13.3h-8.9c.46-.92.94-2.02,1.38-3.02l-1.76-.44a26.138,26.138,0,0,1-1.28,3.46H22.02V1.5h1.5V-11.84H36.56V-.5c0,.36-.12.48-.5.5-.4.02-1.78.02-3.2-.04a6.971,6.971,0,0,1,.56,1.56,14.123,14.123,0,0,0,3.72-.26c.68-.26.9-.76.9-1.74Zm19.04-.64v1.54H55.46v-1.54Zm0,4.24H55.46v-1.54h1.62Zm-2.86-2.7H51.14v1.16h3.08V-9.7h-2.3v1.14h2.3v1.48h-2.5v1.22h2.5V-4.3H51.18v1.22h3.04v2.4h1.24v-2.4h3.18V-4.3H55.46V-5.86h2.8V-7.08h-2.8V-8.56h2.78v-2.68h.9V-12.4h-.9v-2.68H55.46v-1.64H54.22v1.64h-2.3v1.14h2.3Zm-7.5-.74v-1.3h-3.3A13.228,13.228,0,0,0,44-16.36l-1.18-.32a13.115,13.115,0,0,1-2.06,4.82,8.81,8.81,0,0,1,.72,1.22,11.86,11.86,0,0,0,1.42-2.5ZM44.6-1.4V-5.58h2.16v-1.3H44.6V-9.64h1.64v-1.28H41.92v1.28h1.42v2.76H41.08v1.3h2.26v4.06A2.386,2.386,0,0,1,42.42.34a4.159,4.159,0,0,1,.72.96V1.24l.02.06c.28-.38.78-.72,3.86-2.88a6.539,6.539,0,0,1-.44-1.12Zm5.94-8.1-.22.04H48.96c.7-1.72,1.56-3.98,2.2-5.82H47.18v1.26h2.24c-.7,1.98-1.6,4.24-2.26,5.74h2.82a21.807,21.807,0,0,1-.9,4.4,11.487,11.487,0,0,1-.92-2.52L47.04-6A14.166,14.166,0,0,0,48.5-2.4,8.286,8.286,0,0,1,46.08.64a3.948,3.948,0,0,1,.96.86,8.522,8.522,0,0,0,2.28-2.8C51.1.8,53.5,1.3,56.22,1.3H58.8A4.237,4.237,0,0,1,59.28,0c-.66.02-2.5.02-2.98.02-2.46,0-4.76-.46-6.42-2.58A23.465,23.465,0,0,0,51.3-9.32Z" transform="translate(-10646.266 -16638.424)" fill="#747474"/>
    <path id="路径_5597" data-name="路径 5597" d="M-44.28-6.28V-1h-8.86V-6.28Zm2.98-5.3v-1.44h-9.86c.38-1.14.68-2.28.96-3.44l-1.54-.28a36.609,36.609,0,0,1-1,3.72h-5.9v1.44h5.36a16.966,16.966,0,0,1-6,8.02,9.02,9.02,0,0,1,.98,1.18,17.449,17.449,0,0,0,3.7-3.68V1.56h1.46V.42h8.86V1.46h1.52V-7.7H-53.52a25.581,25.581,0,0,0,1.84-3.88Zm18.66-4.92a65.478,65.478,0,0,1-10.32,1.34,5.012,5.012,0,0,1,.36,1.14,62.18,62.18,0,0,0,10.86-1.34Zm-1.2,6.36c.6-.94,1.28-2.42,1.92-3.68l-1.36-.52a22.979,22.979,0,0,1-1.62,3.72Zm-2.4-1.14a14.974,14.974,0,0,0-1.06-2.74l-1.12.34a15.9,15.9,0,0,1,.98,2.82Zm-3.54-.02a11.759,11.759,0,0,0-1.24-2.36l-1.14.44a11.779,11.779,0,0,1,1.2,2.42Zm-3.66,3.38-1.74.54v-3.96h1.92v-1.38h-1.92V-16.7h-1.38v3.98h-2.36v1.38h2.36v4.4c-1,.3-1.9.56-2.64.76l.38,1.44,2.26-.74V-.34c0,.3-.1.38-.36.38-.22,0-1,0-1.86-.02a5.126,5.126,0,0,1,.42,1.38,5.775,5.775,0,0,0,2.5-.28c.5-.24.68-.62.68-1.44v-5.6l1.96-.64Zm7.06,3.04h5.4V-6.16h-5.4V-8.58h4.72V-9.86h-8.1c.12-.24.22-.48.32-.7l-1.3-.32a7.6,7.6,0,0,1-2.36,3.3,7.56,7.56,0,0,1,1.08.8,9.936,9.936,0,0,0,1.54-1.8h2.7v2.42h-5.38v1.28h5.38V-.66h-3.3V-3.84h-1.36V.6h9.12v.94h1.36V-3.98h-1.36V-.66h-3.06Zm12.16-6.6h3v-1.4h-3v-3.84h-1.44v3.84h-3.3v1.4h3.16a23.283,23.283,0,0,1-3.38,7.76,7.913,7.913,0,0,1,.8,1.34,20.578,20.578,0,0,0,2.72-5.6v9.5h1.44V-8.8c.74,1.1,1.68,2.54,2.08,3.28l.86-1.38c-.44-.6-2.26-2.98-2.94-3.76ZM-.84-8.82H-5.42v-5.4h3.96v-1.46H-10.8v1.46h3.84v5.4h-4.56v1.48h4.56V1.52h1.54V-7.34H-.84Z" transform="translate(-9632.266 -16544.424)" fill="#747474"/>
    <path id="路径_5625" data-name="路径 5625" d="M0,0H222.144" transform="translate(-10571.644 -16959.02)" fill="none" stroke="#747474" stroke-linecap="round" stroke-width="2"/>
    <path id="路径_5626" data-name="路径 5626" d="M0,0H209.144" transform="translate(-10571.644 -16890.688)" fill="none" stroke="#747474" stroke-linecap="round" stroke-width="2"/>
    <path id="路径_5627" data-name="路径 5627" d="M0,0H205.144" transform="translate(-10571.644 -16821.688)" fill="none" stroke="#747474" stroke-linecap="round" stroke-width="2"/>
    <path id="路径_5628" data-name="路径 5628" d="M0,0H216.144" transform="translate(-10571.644 -16749.025)" fill="none" stroke="#747474" stroke-linecap="round" stroke-width="2"/>
    <path id="路径_5629" data-name="路径 5629" d="M0,0H291.144" transform="translate(-10571.644 -16646.025)" fill="none" stroke="#747474" stroke-linecap="round" stroke-width="2"/>
    <path id="路径_5559" data-name="路径 5559" d="M10.148,0,38.3,32.427,68.6,67.446" transform="translate(-9979.451 -16753.316)" fill="none" stroke="#747474" stroke-linecap="round" stroke-width="2"/>
    <path id="路径_5610" data-name="路径 5610" d="M217.141,0H0" transform="translate(-9923.5 -16822.357)" fill="none" stroke="#747474" stroke-linecap="round" stroke-width="2"/>
    <path id="路径_5611" data-name="路径 5611" d="M195.141,0H0" transform="translate(-9901.5 -16754.025)" fill="none" stroke="#747474" stroke-linecap="round" stroke-width="2"/>
    <path id="路径_5612" data-name="路径 5612" d="M20.019,0H0" transform="translate(-9989.52 -16754.025)" fill="none" stroke="#747474" stroke-linecap="round" stroke-width="2"/>
    <path id="路径_5613" data-name="路径 5613" d="M205.627,0H0" transform="translate(-9910.5 -16685.695)" fill="none" stroke="#747474" stroke-linecap="round" stroke-width="2"/>
    <path id="路径_5614" data-name="路径 5614" d="M187.627,0H0" transform="translate(-9892.5 -16617.363)" fill="none" stroke="#747474" stroke-linecap="round" stroke-width="2"/>
    <path id="路径_5615" data-name="路径 5615" d="M0,25.857,22.288,0" transform="translate(-9946.5 -16822.357)" fill="none" stroke="#747474" stroke-linecap="round" stroke-width="2"/>
    <path id="路径_5560" data-name="路径 5560" d="M-2.008,0,60.533,72.034" transform="translate(-9953.042 -16689.441)" fill="none" stroke="#747474" stroke-linecap="round" stroke-width="2"/>
    <path id="路径_5630" data-name="路径 5630" d="M0,0,68.572,77.777" transform="translate(-10349.072 -16958.277)" fill="none" stroke="#747474" stroke-linecap="round" stroke-width="2"/>
    <path id="路径_5631" data-name="路径 5631" d="M0,0,61,69" transform="translate(-10366.5 -16821.5)" fill="none" stroke="#747474" stroke-linecap="round" stroke-width="2"/>
    <path id="路径_5632" data-name="路径 5632" d="M220.141,0H0" transform="translate(-9926.5 -16959.02)" fill="none" stroke="#747474" stroke-linecap="round" stroke-width="2"/>
    <path id="路径_5616" data-name="路径 5616" d="M206.141,0H0" transform="translate(-9912.5 -16890.688)" fill="none" stroke="#747474" stroke-linecap="round" stroke-width="2"/>
    <path id="路径_5633" data-name="路径 5633" d="M0,0V283.485" transform="translate(-10136.783 -16804.984)" fill="none" stroke="#747474" stroke-linecap="round" stroke-width="2"/>
    <path id="路径_5634" data-name="路径 5634" d="M0,0V132.558" transform="translate(-10185.783 -16904.059)" fill="none" stroke="#747474" stroke-linecap="round" stroke-width="2"/>
    <path id="路径_5635" data-name="路径 5635" d="M0,0V132.558" transform="translate(-10091.783 -16904.059)" fill="none" stroke="#747474" stroke-linecap="round" stroke-width="2"/>
    <path id="路径_5636" data-name="路径 5636" d="M0,0V132" transform="translate(-10050.477 -16653.5)" fill="none" stroke="#747474" stroke-linecap="round" stroke-width="2"/>
    <path id="路径_5617" data-name="路径 5617" d="M208.627,0H0" transform="translate(-9913.5 -16549.363)" fill="none" stroke="#747474" stroke-linecap="round" stroke-width="2"/>
    <path id="路径_5561" data-name="路径 5561" d="M-2.008,0,85.6,100.438" transform="translate(-9999.042 -16649.441)" fill="none" stroke="#747474" stroke-linecap="round" stroke-width="2"/>
    <g id="xboxone" transform="translate(-7011 -8242)">
      <g id="组_4416" data-name="组 4416" transform="translate(-3645 -8948)" opacity="0.5">
        <path id="联合_14" data-name="联合 14" d="M487.558,363.874c-.508-.509-18.834-29.526-57.523-30.8-36.692-1.206-97.851-.125-104.069-.01v.01l-.257,0-.257,0v-.01c-6.218-.115-67.377-1.2-104.068.01-38.689,1.273-57.016,30.29-57.524,30.8C114.519,432.5,90.241,459.322,76.3,459.323c-18.581,0-44.035-7.127-58.8-30.036S-7.7,370.236,7.322,281.4,56.376,116.789,66.109,94.2,84.993,63.729,84.993,63.729A31.892,31.892,0,0,0,99.474,45.308c3.824-12.976,15.641-17.726,15.641-17.726s1.738-1.39,32.44-15.525S210.925.124,210.925.124L237.494,12.9h176.43L440.491.124s32.671-2.2,63.372,11.933S536.3,27.582,536.3,27.582s11.818,4.75,15.641,17.726a31.892,31.892,0,0,0,14.482,18.421s9.152,7.878,18.884,30.469,43.769,98.377,58.785,187.207,4.582,124.976-10.181,147.883-40.216,30.036-58.8,30.036C561.175,459.322,536.9,432.5,487.558,363.874Z" transform="translate(192.5 308.677)" fill="none" stroke="#747474" stroke-width="4"/>
        <g id="椭圆_2186" data-name="椭圆 2186" transform="translate(618.878 415.927)" fill="none" stroke="#747474" stroke-width="3">
          <circle cx="21.941" cy="21.941" r="21.941" stroke="none"/>
          <circle cx="21.941" cy="21.941" r="20.441" fill="none"/>
        </g>
        <g id="椭圆_2187" data-name="椭圆 2187" transform="translate(548.668 421.778)" fill="none" stroke="#747474" stroke-width="2">
          <circle cx="16.09" cy="16.09" r="16.09" stroke="none"/>
          <circle cx="16.09" cy="16.09" r="15.09" fill="none"/>
        </g>
        <g id="椭圆_2188" data-name="椭圆 2188" transform="translate(453.592 421.778)" fill="none" stroke="#747474" stroke-width="2">
          <circle cx="16.09" cy="16.09" r="16.09" stroke="none"/>
          <circle cx="16.09" cy="16.09" r="15.09" fill="none"/>
        </g>
        <g id="椭圆_2189" data-name="椭圆 2189" transform="translate(557.444 489.062)" fill="none" stroke="#747474" stroke-width="4">
          <circle cx="46.806" cy="46.806" r="46.806" stroke="none"/>
          <circle cx="46.806" cy="46.806" r="44.806" fill="none"/>
        </g>
        <g id="椭圆_2190" data-name="椭圆 2190" transform="translate(304.397 391.061)" fill="none" stroke="#747474" stroke-width="4">
          <circle cx="46.806" cy="46.806" r="46.806" stroke="none"/>
          <circle cx="46.806" cy="46.806" r="44.806" fill="none"/>
        </g>
        <g id="椭圆_2191" data-name="椭圆 2191" transform="translate(662.759 372.046)" fill="none" stroke="#747474" stroke-width="3">
          <circle cx="21.941" cy="21.941" r="21.941" stroke="none"/>
          <circle cx="21.941" cy="21.941" r="20.441" fill="none"/>
        </g>
        <g id="椭圆_2192" data-name="椭圆 2192" transform="translate(706.64 415.927)" fill="none" stroke="#747474" stroke-width="3">
          <circle cx="21.941" cy="21.941" r="21.941" stroke="none"/>
          <circle cx="21.941" cy="21.941" r="20.441" fill="none"/>
        </g>
        <g id="椭圆_2193" data-name="椭圆 2193" transform="translate(662.759 459.808)" fill="none" stroke="#747474" stroke-width="3">
          <circle cx="21.941" cy="21.941" r="21.941" stroke="none"/>
          <circle cx="21.941" cy="21.941" r="20.441" fill="none"/>
        </g>
        <g id="联合_15" data-name="联合 15" transform="translate(378.995 490.525)" fill="none">
          <path d="M39.1,103.852a4,4,0,0,1-4-4v-31.1H4a4,4,0,0,1-4-4V39.1a4,4,0,0,1,4-4H35.1V4a4,4,0,0,1,4-4H64.747a4,4,0,0,1,4,4V35.1h31.1a4,4,0,0,1,4,4V64.747a4,4,0,0,1-4,4h-31.1v31.1a4,4,0,0,1-4,4Z" stroke="none"/>
          <path d="M 64.74691009521484 101.8519058227539 C 65.84998321533203 101.8519058227539 66.74739837646484 100.9548950195313 66.74739837646484 99.85231018066406 L 66.74739837646484 68.74739837646484 L 66.74739837646484 66.74739837646484 L 68.74739837646484 66.74739837646484 L 99.85231018066406 66.74739837646484 C 100.9548950195313 66.74739837646484 101.8519058227539 65.84998321533203 101.8519058227539 64.74691009521484 L 101.8519058227539 39.10499954223633 C 101.8519058227539 38.00192260742188 100.9548950195313 37.10450744628906 99.85231018066406 37.10450744628906 L 68.74739837646484 37.10450744628906 L 66.74739837646484 37.10450744628906 L 66.74739837646484 35.10450744628906 L 66.74739837646484 3.999598979949951 C 66.74739837646484 2.897014379501343 65.84998321533203 1.999999046325684 64.74691009521484 1.999999046325684 L 39.10499954223633 1.999999046325684 C 38.00192260742188 1.999999046325684 37.10450744628906 2.897014379501343 37.10450744628906 3.999598979949951 L 37.10450744628906 35.10450744628906 L 37.10450744628906 37.10450744628906 L 35.10450744628906 37.10450744628906 L 3.999598979949951 37.10450744628906 C 2.897014379501343 37.10450744628906 1.999999046325684 38.00192260742188 1.999999046325684 39.10499954223633 L 1.999999046325684 64.74691009521484 C 1.999999046325684 65.84998321533203 2.897014379501343 66.74739837646484 3.999598979949951 66.74739837646484 L 35.10450744628906 66.74739837646484 L 37.10450744628906 66.74739837646484 L 37.10450744628906 68.74739837646484 L 37.10450744628906 99.85231018066406 C 37.10450744628906 100.9548950195313 38.00192260742188 101.8519058227539 39.10499954223633 101.8519058227539 L 64.74691009521484 101.8519058227539 M 64.74691009521484 103.8519058227539 L 39.10499954223633 103.8519058227539 C 36.8955078125 103.8519058227539 35.10450744628906 102.060905456543 35.10450744628906 99.85231018066406 L 35.10450744628906 68.74739837646484 L 3.999598979949951 68.74739837646484 C 1.790999054908752 68.74739837646484 -9.34776892336231e-07 66.95639801025391 -9.34776892336231e-07 64.74691009521484 L -9.34776892336231e-07 39.10499954223633 C -9.34776892336231e-07 36.8955078125 1.790999054908752 35.10450744628906 3.999598979949951 35.10450744628906 L 35.10450744628906 35.10450744628906 L 35.10450744628906 3.999598979949951 C 35.10450744628906 1.790999054908752 36.8955078125 -9.34776892336231e-07 39.10499954223633 -9.34776892336231e-07 L 64.74691009521484 -9.34776892336231e-07 C 66.95639801025391 -9.34776892336231e-07 68.74739837646484 1.790999054908752 68.74739837646484 3.999598979949951 L 68.74739837646484 35.10450744628906 L 99.85231018066406 35.10450744628906 C 102.060905456543 35.10450744628906 103.8519058227539 36.8955078125 103.8519058227539 39.10499954223633 L 103.8519058227539 64.74691009521484 C 103.8519058227539 66.95639801025391 102.060905456543 68.74739837646484 99.85231018066406 68.74739837646484 L 68.74739837646484 68.74739837646484 L 68.74739837646484 99.85231018066406 C 68.74739837646484 102.060905456543 66.95639801025391 103.8519058227539 64.74691009521484 103.8519058227539 Z" stroke="none" fill="#747474"/>
        </g>
        <circle id="椭圆_2181" data-name="椭圆 2181" cx="27.097" cy="27.097" r="27.097" transform="translate(577.406 509.023)" fill="none" stroke="#747474" stroke-width="2"/>
        <circle id="椭圆_2181-2" data-name="椭圆 2181" cx="27.097" cy="27.097" r="27.097" transform="translate(324.359 411.022)" fill="none" stroke="#747474" stroke-width="2"/>
        <g id="椭圆_2223" data-name="椭圆 2223" transform="translate(493.085 347.18)" fill="none" stroke="#747474" stroke-width="2">
          <circle cx="25.597" cy="25.597" r="25.597" stroke="none"/>
          <circle cx="25.597" cy="25.597" r="24.597" fill="none"/>
        </g>
      </g>
    </g>
    <path id="路径_5637" data-name="路径 5637" d="M27.315,30.189,0,0" transform="translate(-10362.814 -16890.688)" fill="none" stroke="#747474" stroke-linecap="round" stroke-width="2"/>
    <path id="路径_5618" data-name="路径 5618" d="M68.572,0,0,77.777" transform="translate(-9994.814 -16958.277)" fill="none" stroke="#747474" stroke-linecap="round" stroke-width="2"/>
    <path id="路径_5619" data-name="路径 5619" d="M0,30.189,27.315,0" transform="translate(-9939.814 -16890.688)" fill="none" stroke="#747474" stroke-linecap="round" stroke-width="2"/>
    <path id="路径_5638" data-name="路径 5638" d="M2.28,0H3.6a.481.481,0,0,0,.48-.48v-6a.227.227,0,0,1,.24-.24H5.784a.469.469,0,0,1,.456.288L9.12-.384A.621.621,0,0,0,9.7,0H11.16a.429.429,0,0,0,.48-.432.818.818,0,0,0-.1-.384L8.76-6.48a.885.885,0,0,1-.12-.408c0-.216.192-.384.5-.576a4.746,4.746,0,0,0,2.5-4.3A4.893,4.893,0,0,0,6.6-16.8H2.28a.481.481,0,0,0-.48.48V-.48A.481.481,0,0,0,2.28,0ZM4.32-9a.227.227,0,0,1-.24-.24v-5.04a.227.227,0,0,1,.24-.24H6.6a2.6,2.6,0,0,1,2.688,2.76A2.6,2.6,0,0,1,6.6-9ZM18.648.24C21.816.24,24-1.728,24-4.608a5.057,5.057,0,0,0-4.2-5.04c-2.808-.624-3.792-1.392-3.792-2.88,0-1.368,1.032-2.232,2.736-2.232s2.736.84,2.736,2.28v.312a.481.481,0,0,0,.48.48h1.32a.481.481,0,0,0,.48-.48v-.312c0-2.832-1.9-4.56-4.968-4.56-2.952,0-5.136,1.7-5.136,4.56,0,2.616,1.68,4.176,4.512,4.824,2.472.576,3.48,1.488,3.48,3.144,0,1.464-1.224,2.472-2.976,2.472C16.8-2.04,15.5-3.168,15.5-4.8v-.384a.481.481,0,0,0-.48-.48H13.68a.481.481,0,0,0-.48.48V-4.8C13.2-1.752,15.36.24,18.648.24ZM27.12,0h4.44A4.79,4.79,0,0,0,36.6-4.9a5.024,5.024,0,0,0-1.7-3.672.314.314,0,0,1,0-.528,4.524,4.524,0,0,0,1.368-3.24,4.374,4.374,0,0,0-4.7-4.464H27.12a.481.481,0,0,0-.48.48V-.48A.481.481,0,0,0,27.12,0Zm1.992-9.888a.227.227,0,0,1-.24-.24V-14.28a.227.227,0,0,1,.24-.24H31.56a2.066,2.066,0,0,1,2.352,2.184A2.256,2.256,0,0,1,31.56-9.888Zm0,7.608a.227.227,0,0,1-.24-.24V-7.488a.215.215,0,0,1,.24-.24H31.56A2.718,2.718,0,0,1,34.248-4.9,2.537,2.537,0,0,1,31.56-2.28Z" transform="translate(-10069.846 -16488.547)" fill="#747474"/>
    <path id="路径_5639" data-name="路径 5639" d="M.792,0H2.424c.216,0,.312-.072.456-.36L5.76-6.168c.1-.192.144-.24.192-.24s.1.048.192.24L9.048-.36c.144.288.24.36.456.36h1.632a.416.416,0,0,0,.432-.432.758.758,0,0,0-.12-.384l-4.032-7.8a.861.861,0,0,1-.1-.264A.553.553,0,0,1,7.392-9.1l3.672-6.888a.885.885,0,0,0,.12-.408.426.426,0,0,0-.432-.408H9.216c-.216,0-.312.072-.456.36L6.12-11.328c-.048.1-.12.192-.168.192s-.12-.1-.168-.192L3.144-16.44c-.144-.288-.24-.36-.456-.36H1.152a.426.426,0,0,0-.432.408.9.9,0,0,0,.12.408L4.512-9.1a.553.553,0,0,1,.072.216.692.692,0,0,1-.1.264L.48-.816a.83.83,0,0,0-.12.408A.426.426,0,0,0,.792,0ZM18.408.24A4.236,4.236,0,0,0,22.3-1.824,9.5,9.5,0,0,0,23.04-6a8.784,8.784,0,0,0-.768-4.2A4.051,4.051,0,0,0,18.6-12.24c-1.584,0-2.088.768-2.52.768-.312,0-.432-.216-.432-.768v-4.32a.481.481,0,0,0-.48-.48h-1.2a.481.481,0,0,0-.48.48V-.48a.481.481,0,0,0,.48.48h.816c.192,0,.288-.048.336-.168.168-.384.288-.5.48-.5C16.1-.672,16.464.24,18.408.24Zm-.216-2.16a2.423,2.423,0,0,1-2.256-1.1A6.036,6.036,0,0,1,15.5-6a6.036,6.036,0,0,1,.432-2.976,2.423,2.423,0,0,1,2.256-1.1,2.4,2.4,0,0,1,2.256,1.1A6.328,6.328,0,0,1,20.88-6a6.036,6.036,0,0,1-.432,2.976A2.423,2.423,0,0,1,18.192-1.92ZM30.264.24a4.671,4.671,0,0,0,4.08-1.992A7.189,7.189,0,0,0,35.232-6a7.189,7.189,0,0,0-.888-4.248,4.671,4.671,0,0,0-4.08-1.992,4.671,4.671,0,0,0-4.08,1.992A7.189,7.189,0,0,0,25.3-6a7.189,7.189,0,0,0,.888,4.248A4.671,4.671,0,0,0,30.264.24Zm0-2.16a2.6,2.6,0,0,1-2.208-1.128A5.354,5.354,0,0,1,27.528-6a5.354,5.354,0,0,1,.528-2.952,2.6,2.6,0,0,1,2.208-1.128,2.6,2.6,0,0,1,2.208,1.128A5.354,5.354,0,0,1,33-6a5.354,5.354,0,0,1-.528,2.952A2.6,2.6,0,0,1,30.264-1.92ZM37.056,0h1.392c.36,0,.456-.12.528-.24L41.3-4.1c.072-.12.12-.192.192-.192s.12.072.192.192L44.016-.24c.072.12.168.24.528.24h1.392a.451.451,0,0,0,.5-.432.714.714,0,0,0-.12-.36L42.984-5.976a.648.648,0,0,1-.12-.264.507.507,0,0,1,.1-.24l3.12-4.608a.829.829,0,0,0,.192-.48.451.451,0,0,0-.5-.432H44.424c-.36,0-.456.12-.528.24L41.688-8.3c-.072.12-.12.192-.192.192s-.12-.072-.192-.192L39.1-11.76c-.072-.12-.168-.24-.528-.24H37.224a.451.451,0,0,0-.5.432.829.829,0,0,0,.192.48l3.12,4.608a.507.507,0,0,1,.1.24.648.648,0,0,1-.12.264L36.672-.792a.714.714,0,0,0-.12.36A.451.451,0,0,0,37.056,0Z" transform="translate(-10159.846 -16488.547)" fill="#747474"/>
    <path id="路径_5640" data-name="路径 5640" d="M2.28,0H9.7a.481.481,0,0,0,.48-.48V-1.8a.481.481,0,0,0-.48-.48H4.32a.227.227,0,0,1-.24-.24v-13.8a.481.481,0,0,0-.48-.48H2.28a.481.481,0,0,0-.48.48V-.48A.481.481,0,0,0,2.28,0ZM16.1.24c3.168,0,5.352-1.968,5.352-4.848a5.057,5.057,0,0,0-4.2-5.04c-2.808-.624-3.792-1.392-3.792-2.88,0-1.368,1.032-2.232,2.736-2.232s2.736.84,2.736,2.28v.312a.481.481,0,0,0,.48.48h1.32a.481.481,0,0,0,.48-.48v-.312c0-2.832-1.9-4.56-4.968-4.56-2.952,0-5.136,1.7-5.136,4.56,0,2.616,1.68,4.176,4.512,4.824C18.1-7.08,19.1-6.168,19.1-4.512c0,1.464-1.224,2.472-2.976,2.472-1.872,0-3.168-1.128-3.168-2.76v-.384a.481.481,0,0,0-.48-.48H11.136a.481.481,0,0,0-.48.48V-4.8C10.656-1.752,12.816.24,16.1.24ZM24.576,0h4.44a4.79,4.79,0,0,0,5.04-4.9,5.024,5.024,0,0,0-1.7-3.672.314.314,0,0,1,0-.528,4.524,4.524,0,0,0,1.368-3.24,4.374,4.374,0,0,0-4.7-4.464h-4.44a.481.481,0,0,0-.48.48V-.48A.481.481,0,0,0,24.576,0Zm1.992-9.888a.227.227,0,0,1-.24-.24V-14.28a.227.227,0,0,1,.24-.24h2.448a2.066,2.066,0,0,1,2.352,2.184,2.256,2.256,0,0,1-2.352,2.448Zm0,7.608a.227.227,0,0,1-.24-.24V-7.488a.215.215,0,0,1,.24-.24h2.448A2.718,2.718,0,0,1,31.7-4.9,2.537,2.537,0,0,1,29.016-2.28Z" transform="translate(-10627.152 -16813.547)" fill="#747474"/>
    <path id="路径_5641" data-name="路径 5641" d="M-47.32-.48V-6.46h5.34V-7.9H-53.22c.44-1.24.84-2.5,1.16-3.8h10.6v-1.44H-51.7c.26-1.14.46-2.28.66-3.4l-1.54-.18c-.18,1.16-.4,2.38-.66,3.58h-5.34v1.44h5C-54.66-7.52-56.4-3.5-59.34-.82A10.742,10.742,0,0,1-58.36.34a20.735,20.735,0,0,0,5.1-8.14v1.34h4.46V-.48h-6.5V.96h14.2V-.48ZM-22.64-16.5a65.478,65.478,0,0,1-10.32,1.34,5.012,5.012,0,0,1,.36,1.14,62.18,62.18,0,0,0,10.86-1.34Zm-1.2,6.36c.6-.94,1.28-2.42,1.92-3.68l-1.36-.52a22.979,22.979,0,0,1-1.62,3.72Zm-2.4-1.14a14.974,14.974,0,0,0-1.06-2.74l-1.12.34a15.9,15.9,0,0,1,.98,2.82Zm-3.54-.02a11.759,11.759,0,0,0-1.24-2.36l-1.14.44a11.779,11.779,0,0,1,1.2,2.42Zm-3.66,3.38-1.74.54v-3.96h1.92v-1.38h-1.92V-16.7h-1.38v3.98h-2.36v1.38h2.36v4.4c-1,.3-1.9.56-2.64.76l.38,1.44,2.26-.74V-.34c0,.3-.1.38-.36.38-.22,0-1,0-1.86-.02a5.126,5.126,0,0,1,.42,1.38,5.775,5.775,0,0,0,2.5-.28c.5-.24.68-.62.68-1.44v-5.6l1.96-.64Zm7.06,3.04h5.4V-6.16h-5.4V-8.58h4.72V-9.86h-8.1c.12-.24.22-.48.32-.7l-1.3-.32a7.6,7.6,0,0,1-2.36,3.3,7.56,7.56,0,0,1,1.08.8,9.936,9.936,0,0,0,1.54-1.8h2.7v2.42h-5.38v1.28h5.38V-.66h-3.3V-3.84h-1.36V.6h9.12v.94h1.36V-3.98h-1.36V-.66h-3.06Zm12.16-6.6h3v-1.4h-3v-3.84h-1.44v3.84h-3.3v1.4h3.16a23.283,23.283,0,0,1-3.38,7.76,7.913,7.913,0,0,1,.8,1.34,20.578,20.578,0,0,0,2.72-5.6v9.5h1.44V-8.8c.74,1.1,1.68,2.54,2.08,3.28l.86-1.38c-.44-.6-2.26-2.98-2.94-3.76ZM-.84-8.82H-5.42v-5.4h3.96v-1.46H-10.8v1.46h3.84v5.4h-4.56v1.48h4.56V1.52h1.54V-7.34H-.84Z" transform="translate(-10586.266 -16741.424)" fill="#747474"/>
    <path id="路径_5644" data-name="路径 5644" d="M-19.54-14.44h6.14V-5.2h1.48V-15.76h-9.06V-5.2h1.44Zm-4.28.26a10.346,10.346,0,0,0-1.9-2.5l-1.14.66a13.049,13.049,0,0,1,1.84,2.6Zm1.96,8.6c-.38-.44-1.76-2.04-2.5-2.86a19.574,19.574,0,0,0,2.32-4.38l-.8-.54-.28.06h-5.54v1.36h4.82a16.811,16.811,0,0,1-5.3,6.4,5.623,5.623,0,0,1,.66,1.44,17.282,17.282,0,0,0,2.32-2.12V1.52h1.42V-7.04c.7.9,1.54,2.04,1.94,2.64ZM-14.5.1c-.58,0-.74-.14-.74-.7V-5.52h-1A14.423,14.423,0,0,0-15.84-9v-3.92h-1.44v3.88c0,3.1-.6,6.88-5.62,9.48a4.52,4.52,0,0,1,.94,1.12,10.75,10.75,0,0,0,5.34-5.82V-.44c0,1.3.54,1.68,1.9,1.68h1.82c1.7,0,1.94-.8,2.12-3.94A3.582,3.582,0,0,1-12-3.28C-12.1-.42-12.2.1-12.88.1ZM-4.44-3.06A42.217,42.217,0,0,1,3.6-1.26l.68-1.1A44.4,44.4,0,0,0-3.76-4.08Zm1.98-2.52a23.95,23.95,0,0,1,4.7,1.56l.62-1A25.89,25.89,0,0,0-1.86-6.48Zm.16-5.78H2.86A12.022,12.022,0,0,1,.12-9.28a10.413,10.413,0,0,1-2.54-1.96Zm6.4-1.22-.24.06H-1.28a8.585,8.585,0,0,0,.8-1.16l-1.22-.4A13.3,13.3,0,0,1-6.1-9.92a7.451,7.451,0,0,1,1.02.9,14.494,14.494,0,0,0,1.82-1.42A13.656,13.656,0,0,0-1.1-8.66,23.23,23.23,0,0,1-6.46-6.94a6.2,6.2,0,0,1,.7,1.22A23.364,23.364,0,0,0,.16-7.92,20.462,20.462,0,0,0,5.58-5.94,5.765,5.765,0,0,1,6.4-7.06,20.707,20.707,0,0,1,1.38-8.64a11.906,11.906,0,0,0,3.56-3.42ZM-6.82-.62V-14.5H6.8V-.62ZM-8.26-15.86V1.54h1.44V.7H6.8v.84H8.26v-17.4Zm35.34,1.92v1.54H25.46v-1.54Zm0,4.24H25.46v-1.54h1.62Zm-2.86-2.7H21.14v1.16h3.08V-9.7h-2.3v1.14h2.3v1.48h-2.5v1.22h2.5V-4.3H21.18v1.22h3.04v2.4h1.24v-2.4h3.18V-4.3H25.46V-5.86h2.8V-7.08h-2.8V-8.56h2.78v-2.68h.9V-12.4h-.9v-2.68H25.46v-1.64H24.22v1.64h-2.3v1.14h2.3Zm-7.5-.74v-1.3h-3.3A13.228,13.228,0,0,0,14-16.36l-1.18-.32a13.115,13.115,0,0,1-2.06,4.82,8.81,8.81,0,0,1,.72,1.22,11.86,11.86,0,0,0,1.42-2.5ZM14.6-1.4V-5.58h2.16v-1.3H14.6V-9.64h1.64v-1.28H11.92v1.28h1.42v2.76H11.08v1.3h2.26v4.06A2.386,2.386,0,0,1,12.42.34a4.159,4.159,0,0,1,.72.96V1.24l.02.06c.28-.38.78-.72,3.86-2.88a6.539,6.539,0,0,1-.44-1.12Zm5.94-8.1-.22.04H18.96c.7-1.72,1.56-3.98,2.2-5.82H17.18v1.26h2.24c-.7,1.98-1.6,4.24-2.26,5.74h2.82a21.806,21.806,0,0,1-.9,4.4,11.487,11.487,0,0,1-.92-2.52L17.04-6A14.166,14.166,0,0,0,18.5-2.4,8.286,8.286,0,0,1,16.08.64a3.948,3.948,0,0,1,.96.86,8.522,8.522,0,0,0,2.28-2.8C21.1.8,23.5,1.3,26.22,1.3H28.8A4.237,4.237,0,0,1,29.28,0c-.66.02-2.5.02-2.98.02-2.46,0-4.76-.46-6.42-2.58A23.465,23.465,0,0,0,21.3-9.32Z" transform="translate(-10188.266 -16920.424)" fill="#747474"/>
    <path id="路径_5645" data-name="路径 5645" d="M-24.08-12.42h1.48V-14h5.18v1.36h1.5V-14h4.7v-1.32h-4.7v-1.4h-1.5v1.4H-22.6v-1.4h-1.48v1.4h-4.64V-14h4.64Zm10.24-.42c-3.2.76-9.3,1.18-14.28,1.32a5.327,5.327,0,0,1,.34,1.26,86.639,86.639,0,0,0,15.14-1.42ZM-19.18-7.4a8.442,8.442,0,0,0-1.26-2.76l-1.3.4a9.155,9.155,0,0,1,1.18,2.82Zm-4.98.58a9.9,9.9,0,0,0-1.82-2.94l-1.24.52a10.46,10.46,0,0,1,1.76,2.98ZM-13.9-10.5a24.883,24.883,0,0,1-2.26,3.88l1.16.5a43.032,43.032,0,0,0,2.58-3.8Zm2.74,6.54V-5.3h-8.12V-6.82H-20.8V-5.3h-7.98v1.34h6.64A18.539,18.539,0,0,1-29.26-.14a5.734,5.734,0,0,1,1.02,1.3A19.95,19.95,0,0,0-20.8-3.46V1.52h1.52V-3.5a17.781,17.781,0,0,0,7.46,4.52,6.258,6.258,0,0,1,1-1.3A16.692,16.692,0,0,1-18-3.96Zm5.64-2.62V-8.72H-.8v2.14Zm0-5.44H-.8v2.1H-5.52ZM5.66-9.92H.7v-2.1H5.66Zm0,3.34H.7V-8.72H5.66ZM8.88-3.42H.7v-1.9H7.16v-7.96H3.82c.62-.84,1.34-1.88,1.92-2.82l-1.58-.54a24.361,24.361,0,0,1-2,3.36H-2.66l.82-.42A14.434,14.434,0,0,0-4-16.64l-1.24.6A17.45,17.45,0,0,1-3.3-13.28H-6.98v7.96H-.8v1.9H-8.86v1.38H-.8V1.52H.7V-2.04H8.88Zm18.2-10.52v1.54H25.46v-1.54Zm0,4.24H25.46v-1.54h1.62Zm-2.86-2.7H21.14v1.16h3.08V-9.7h-2.3v1.14h2.3v1.48h-2.5v1.22h2.5V-4.3H21.18v1.22h3.04v2.4h1.24v-2.4h3.18V-4.3H25.46V-5.86h2.8V-7.08h-2.8V-8.56h2.78v-2.68h.9V-12.4h-.9v-2.68H25.46v-1.64H24.22v1.64h-2.3v1.14h2.3Zm-7.5-.74v-1.3h-3.3A13.228,13.228,0,0,0,14-16.36l-1.18-.32a13.115,13.115,0,0,1-2.06,4.82,8.81,8.81,0,0,1,.72,1.22,11.86,11.86,0,0,0,1.42-2.5ZM14.6-1.4V-5.58h2.16v-1.3H14.6V-9.64h1.64v-1.28H11.92v1.28h1.42v2.76H11.08v1.3h2.26v4.06A2.386,2.386,0,0,1,12.42.34a4.159,4.159,0,0,1,.72.96V1.24l.02.06c.28-.38.78-.72,3.86-2.88a6.539,6.539,0,0,1-.44-1.12Zm5.94-8.1-.22.04H18.96c.7-1.72,1.56-3.98,2.2-5.82H17.18v1.26h2.24c-.7,1.98-1.6,4.24-2.26,5.74h2.82a21.806,21.806,0,0,1-.9,4.4,11.487,11.487,0,0,1-.92-2.52L17.04-6A14.166,14.166,0,0,0,18.5-2.4,8.286,8.286,0,0,1,16.08.64a3.948,3.948,0,0,1,.96.86,8.522,8.522,0,0,0,2.28-2.8C21.1.8,23.5,1.3,26.22,1.3H28.8A4.237,4.237,0,0,1,29.28,0c-.66.02-2.5.02-2.98.02-2.46,0-4.76-.46-6.42-2.58A23.465,23.465,0,0,0,21.3-9.32Z" transform="translate(-10092.266 -16920.424)" fill="#747474"/>
  </g>
</svg>
